# xmcd
#
# Track frame offsets:
#	150
#	14031
#	26794
#	44925
#	56637
#	81946
#	97149
#	115975
#	132054
#	145396
#	156876
#
# Disc length: 2275 seconds
#
# Revision: 0
# Processed by: cddbd v1.5.2PL0 Copyright (c) Steve Scherf et al.
# Submitted via: EasyCDDAExtractor 15.0.0.1
#
DISCID=a508e10b
DTITLE=Northern Departure - Cleared For Takeoff
DYEAR=1900
DGENRE=
TTITLE0=Take Off
TTITLE1=Tiny Broken Heart
TTITLE2=Old Soul
TTITLE3=Cry Cry
TTITLE4=Angelina Baker
TTITLE5=Young Ways
TTITLE6=All The Good Times
TTITLE7=Run The Other Way
TTITLE8=Beyond The Grave
TTITLE9=Jailhouse Blues
TTITLE10=Table Mountain
EXTD=
EXTT0=
EXTT1=
EXTT2=
EXTT3=
EXTT4=
EXTT5=
EXTT6=
EXTT7=
EXTT8=
EXTT9=
EXTT10=
PLAYORDER=
